# File created by Blade
# Date/Time:  Wed Jan 21 16:09:38 2015
# Frame Rate: 120.000 fps
#------------------------------------------------------
:FULLY-SPECIFIED
:DEGREES
465
root 12.046741 33.120343 -21.847640 -191.032884 75.122045 -253.812772
Spine 65.196639 -12.136496 0.915240
Head -29.074990 -5.718558 8.767319
LeftShoulder -6.565370 -34.947883 22.456356
LeftArm -36.325246 -6.476671 -20.431167
LeftForeArm -35.060774 -0.000000 -4.519763
LeftHand -10.572099 0.000000 2.784834
LeftHandThumb1 -26.253704 0.000000 33.147579
RightShoulder -11.104205 -1.847473 -12.257734
RightArm -39.150640 46.546223 14.031558
RightForeArm 12.643935 -0.000000 10.468990
RightHand -20.077832 -0.000000 -15.897677
RightHandThumb1 -24.326973 -0.000000 -32.862282
LeftUpLeg -37.514684 -10.637283 -20.292027
LeftLeg -16.608060 -0.000000 0.000000
LeftFoot -6.662760 26.327076 15.162902
LeftToeBase -140.421504 -0.000000 0.000000
RightUpLeg -86.934686 -8.694223 -9.712991
RightLeg -0.707167 -0.000000 0.000000
RightFoot 9.840405 -27.698378 0.501261
RightToeBase 26.930711 -0.000000 -0.000000
466
root 12.040401 33.122744 -21.843347 -190.988931 75.040544 -253.726080
Spine 65.060904 -12.191999 0.863523
Head -29.063463 -5.727606 8.781880
LeftShoulder -6.518930 -34.845250 22.383120
LeftArm -36.295197 -6.560873 -20.503779
LeftForeArm -35.059152 -0.000000 -4.513535
LeftHand -10.536742 0.000000 2.670333
LeftHandThumb1 -26.253704 0.000000 33.147579
RightShoulder -11.058212 -1.930604 -12.249562
RightArm -39.154859 46.633366 14.110881
RightForeArm 12.748063 -0.000000 10.439275
RightHand -20.111000 -0.000000 -15.837273
RightHandThumb1 -24.326973 -0.000000 -32.862282
LeftUpLeg -37.478461 -10.684147 -20.311941
LeftLeg -16.584678 -0.000000 0.000000
LeftFoot -6.630631 26.320893 15.139807
LeftToeBase -140.494182 -0.000000 0.000000
RightUpLeg -86.906898 -8.762906 -9.713416
RightLeg -0.671769 -0.000000 0.000000
RightFoot 9.819018 -27.697343 0.500327
RightToeBase 26.966839 -0.000000 -0.000000
467
root 12.038976 33.124858 -21.838880 -190.900766 74.970660 -253.582669
Spine 64.977816 -12.240434 0.843989
Head -29.144904 -5.662407 8.751573
LeftShoulder -6.502943 -34.933167 22.334146
LeftArm -36.299004 -6.481706 -20.584543
LeftForeArm -35.146146 -0.000000 -4.567703
LeftHand -10.457369 -0.000000 2.494605
LeftHandThumb1 -26.253704 0.000000 33.147579
RightShoulder -11.049309 -1.839364 -12.280791
RightArm -39.200844 46.590815 14.156678
RightForeArm 12.696678 0.000000 10.413211
RightHand -20.216580 -0.000000 -15.768487
RightHandThumb1 -24.326973 -0.000000 -32.862282
LeftUpLeg -37.423816 -10.710484 -20.321117
LeftLeg -16.569131 -0.000000 0.000000
LeftFoot -6.631499 26.295053 15.088318
LeftToeBase -140.534755 -0.000000 0.000000
RightUpLeg -86.848754 -8.824815 -9.710151
RightLeg -0.658553 -0.000000 0.000000
RightFoot 9.773033 -27.619201 0.430222
RightToeBase 27.106469 -0.000000 -0.000000
468
root 12.040544 33.127361 -21.832218 -190.746252 74.938328 -253.374472
Spine 64.902489 -12.254604 0.853686
Head -29.184069 -5.667338 8.771222
LeftShoulder -6.517748 -34.983509 22.332290
LeftArm -36.277685 -6.474966 -20.725241
LeftForeArm -35.161176 -0.000000 -4.600185
LeftHand -10.471353 -0.000000 2.477711
LeftHandThumb1 -26.253704 0.000000 33.147579
RightShoulder -11.035153 -1.687476 -12.322428
RightArm -39.237221 46.453063 14.226895
RightForeArm 12.807873 0.000000 10.367574
RightHand -20.103358 0.000000 -15.751736
RightHandThumb1 -24.326973 -0.000000 -32.862282
LeftUpLeg -37.378095 -10.682814 -20.319213
LeftLeg -16.550952 -0.000000 0.000000
LeftFoot -6.635447 26.243346 15.086181
LeftToeBase -140.573116 -0.000000 0.000000
RightUpLeg -86.774285 -8.844143 -9.724083
RightLeg -0.666685 -0.000000 0.000000
RightFoot 9.756339 -27.638056 0.553187
RightToeBase 26.457203 -0.000000 -0.000000
469
root 12.039472 33.128724 -21.825770 -190.609195 74.902779 -253.208964
Spine 64.806607 -12.276849 0.855104
Head -29.229882 -5.647228 8.746444
LeftShoulder -6.454788 -34.987599 22.247875
LeftArm -36.323461 -6.512043 -20.759871
LeftForeArm -35.163634 -0.000000 -4.559395
LeftHand -10.571750 0.000000 2.408408
LeftHandThumb1 -26.253704 0.000000 33.147579
RightShoulder -11.002066 -1.765701 -12.323474
RightArm -39.284990 46.590577 14.256108
RightForeArm 12.808262 -0.000000 10.331985
RightHand -20.154822 -0.000000 -15.647370
RightHandThumb1 -24.326973 -0.000000 -32.862282
LeftUpLeg -37.360923 -10.683254 -20.310865
LeftLeg -16.529443 -0.000000 0.000000
LeftFoot -6.640791 26.217600 15.088512
LeftToeBase -140.552665 -0.000000 0.000000
RightUpLeg -86.732198 -8.877498 -9.746979
RightLeg -0.667183 -0.000000 0.000000
RightFoot 9.752165 -27.713895 0.570000
RightToeBase 27.005499 -0.000000 -0.000000
470
root 12.040067 33.129914 -21.819264 -190.488078 74.887266 -253.055015
Spine 64.742571 -12.267020 0.864389
Head -29.298652 -5.682535 8.795312
LeftShoulder -6.497813 -34.965859 22.262265
LeftArm -36.276806 -6.595558 -20.899688
LeftForeArm -35.194913 -0.000000 -4.555240
LeftHand -10.497564 -0.000000 2.415287
LeftHandThumb1 -26.253704 0.000000 33.147579
RightShoulder -11.000828 -1.808080 -12.292742
RightArm -39.271276 46.695083 14.306811
RightForeArm 12.937260 -0.000000 10.307653
RightHand -20.164951 0.000000 -15.677116
RightHandThumb1 -24.326973 -0.000000 -32.862282
LeftUpLeg -37.340009 -10.670630 -20.293234
LeftLeg -16.516904 -0.000000 0.000000
LeftFoot -6.649963 26.211888 15.086602
LeftToeBase -140.563584 -0.000000 0.000000
RightUpLeg -86.682494 -8.890830 -9.771429
RightLeg -0.671944 -0.000000 0.000000
RightFoot 9.729338 -27.735257 0.607411
RightToeBase 27.068318 -0.000000 -0.000000
471
root 12.039636 33.130588 -21.811921 -190.381700 74.883480 -252.927982
Spine 64.674001 -12.241486 0.862666
Head -29.360963 -5.667701 8.864062
LeftShoulder -6.481283 -34.962049 22.276347
LeftArm -36.322100 -6.650401 -21.030307
LeftForeArm -35.124835 -0.000000 -4.535840
LeftHand -10.486412 -0.000000 2.367367
LeftHandThumb1 -26.253704 0.000000 33.147579
RightShoulder -10.973919 -1.811165 -12.265097
RightArm -39.323405 46.763588 14.298993
RightForeArm 12.975806 0.000000 10.281542
RightHand -20.134038 -0.000000 -15.656729
RightHandThumb1 -24.326973 -0.000000 -32.862282
LeftUpLeg -37.343289 -10.660563 -20.262805
LeftLeg -16.489383 -0.000000 0.000000
LeftFoot -6.661504 26.219549 15.099504
LeftToeBase -140.505704 -0.000000 0.000000
RightUpLeg -86.652233 -8.894675 -9.778813
RightLeg -0.673502 -0.000000 0.000000
RightFoot 9.679757 -27.732757 0.682136
RightToeBase 27.179540 -0.000000 -0.000000
